<?xml version="1.0" encoding="UTF-8"?>
<svg width="60px" height="60px" viewBox="0 0 60 60" version="1.1" xmlns="http://www.w3.org/2000/svg" xmlns:xlink="http://www.w3.org/1999/xlink">
    <title>Book Cover Icon</title>
    <g stroke="none" stroke-width="1" fill="none" fill-rule="evenodd">
        <rect fill="#f0f0f0" x="0" y="0" width="60" height="60" rx="6"></rect>
        <path d="M10,10 L10,50 L50,50 L50,10 L10,10 Z" fill="#FFFFFF" stroke="#3F87F5" stroke-width="2"></path>
        <path d="M15,15 L15,45 L30,45 L30,15 L15,15 Z" fill="#E6F7FE" stroke="#53C1DE" stroke-width="2"></path>
        <path d="M30,15 L30,45 L45,45 L45,15 L30,15 Z" fill="#F9E6FF" stroke="#7000fe" stroke-width="2"></path>
        <rect fill="#7000fe" x="35" y="25" width="6" height="2" rx="1"></rect>
        <rect fill="#7000fe" x="35" y="30" width="6" height="2" rx="1"></rect>
        <rect fill="#7000fe" x="35" y="35" width="6" height="2" rx="1"></rect>
        <circle fill="#53C1DE" cx="22" cy="25" r="3"></circle>
        <rect fill="#53C1DE" x="19" y="32" width="6" height="2" rx="1"></rect>
        <rect fill="#53C1DE" x="19" y="37" width="6" height="2" rx="1"></rect>
    </g>
</svg>
