<?xml version="1.0" encoding="UTF-8"?>
<svg width="80px" height="80px" viewBox="0 0 80 80" version="1.1" xmlns="http://www.w3.org/2000/svg" xmlns:xlink="http://www.w3.org/1999/xlink">
    <title>Printing Service Icon</title>
    <g stroke="none" stroke-width="1" fill="none" fill-rule="evenodd">
        <rect stroke="#3F87F5" stroke-width="2" x="20" y="15" width="40" height="50" rx="2"></rect>
        <rect fill="#7000fe" x="25" y="20" width="30" height="5" rx="1"></rect>
        <rect fill="#53C1DE" x="25" y="30" width="30" height="5" rx="1"></rect>
        <rect fill="#7000fe" x="25" y="40" width="20" height="5" rx="1"></rect>
        <rect fill="#53C1DE" x="25" y="50" width="30" height="5" rx="1"></rect>
        <path d="M50,65 L60,65 C61.1045695,65 62,64.1045695 62,63 L62,53 L65,53 C66.1045695,53 67,52.1045695 67,51 L67,36 C67,34.8954305 66.1045695,34 65,34 L15,34 C13.8954305,34 13,34.8954305 13,36 L13,51 C13,52.1045695 13.8954305,53 15,53 L18,53 L18,63 C18,64.1045695 18.8954305,65 20,65 L30,65" stroke="#3F87F5" stroke-width="2"></path>
        <circle fill="#7000fe" cx="60" cy="43.5" r="2.5"></circle>
        <rect fill="#53C1DE" x="20" y="45" width="40" height="3" rx="1.5"></rect>
    </g>
</svg>
