<?xml version="1.0" encoding="UTF-8"?>
<!-- Creator: CorelDRAW 2018 (64-Bit) -->
<svg xmlns="http://www.w3.org/2000/svg" xmlns:xlink="http://www.w3.org/1999/xlink" xml:space="preserve" width="36.4066mm" height="27.94mm" version="1.1" style="shape-rendering:geometricPrecision; text-rendering:geometricPrecision; image-rendering:optimizeQuality; fill-rule:evenodd; clip-rule:evenodd" viewBox="0 0 3640.66 2794">
 <defs>
  <style type="text/css">
   <![CDATA[
    .fil0 {fill:#2B2A29;fill-rule:nonzero}
    .fil3 {fill:#E72585;fill-rule:nonzero}
    .fil1 {fill:#F6E831;fill-rule:nonzero}
    .fil2 {fill:#2E9ED6;fill-rule:nonzero}
   ]]>
  </style>
 </defs>
 <g id="Katman_x0020_1">
  <metadata id="CorelCorpID_0Corel-Layer"></metadata>
  <path class="fil0" d="M1389.34 1397.44c0,-28.86 -20.8,-46.27 -57.92,-46.27l-65.54 -0.34 0 93.75 64.67 0c30.04,0 58.79,-14.7 58.79,-47.14zm-91.24 -213.39l-32.22 0 0 77.4 31.24 0c28.52,0 49.97,-14.04 49.97,-39.52 0,-23.84 -20.8,-37.88 -48.99,-37.88zm216.77 228.96c0,78.06 -65.54,150.67 -164.4,150.67l-210.68 0 0 -493.64 162.23 0c89.49,0 155.04,60.33 155.04,128.38 0,50.84 -33.76,87.21 -54,87.21 52.7,0 111.81,53.01 111.81,127.38z"></path>
  <path class="fil0" d="M1700.5 1286.82l53.68 0.33c27.87,0.32 53.23,-19.27 53.23,-49.54 0,-30.71 -25.69,-49.64 -53.23,-49.64l-53.68 0 0 98.85zm132.61 276.86l-131.96 -214.37 0 214.37 -131.08 0 -0.54 -493.64 187.37 0c106.58,0 182.8,71.98 182.8,160.49 0,61.51 -37.01,113.01 -85.47,135.01l132.29 198.14 -153.41 0z"></path>
  <path class="fil0" d="M2307.16 1410.29l-50.53 -116.93 -50.84 116.93 101.37 0zm41.59 95.8l-184.33 0 -25.15 57.6 -143.28 0 229.4 -499.73 62.17 0 229.62 499.73 -143.6 0 -24.83 -57.6z"></path>
  <polygon class="fil0" points="2991.76,1069.51 2991.76,1568.6 2950.07,1568.6 2696.28,1322.75 2696.28,1564.02 2565.19,1564.02 2565.19,1065.15 2607.43,1065.15 2860.35,1310.13 2860.35,1069.51 "></polygon>
  <path class="fil0" d="M3376.21 1317.2c0,-77.52 -53.9,-124.67 -142.41,-124.67l-29.94 0 0 247.8 31.12 0c87.65,0 141.23,-46.59 141.23,-123.13zm131.41 0.32c0,153.08 -102.68,246.16 -270.45,246.16l-161.03 0 0 -493.3 161.03 -0.34c167.77,-0.53 270.45,93.1 270.45,247.48z"></path>
  <path class="fil0" d="M2002.33 1824.98c0,-25.8 -21.6,-45.25 -51.52,-45.25l-47.67 0 0 91.25 47.67 0.29c30.21,0.27 51.52,-20.3 51.52,-46.29zm-211.68 -149.12l160.16 0c87.24,0 160.07,65.73 160.07,148.56 0,81.8 -71.24,150.44 -160.07,150.44l-47.67 0 0 124.9 -112.49 0 0 -423.9z"></path>
  <path class="fil0" d="M2270.38 1862l46 0.27c23.95,0.29 45.73,-16.54 45.73,-42.52 0,-26.37 -22.06,-42.63 -45.73,-42.63l-46 0 0 84.88zm113.79 237.76l-113.32 -184.1 0 184.1 -112.56 0 -0.47 -423.91 160.91 0c91.53,0 156.97,61.8 156.97,137.81 0,52.83 -31.78,97.05 -73.38,115.94l113.59 170.16 -131.74 0z"></path>
  <polygon class="fil1" points="2555.36,1671.65 2667.92,1671.65 2667.92,1780.01 2555.36,1780.01 "></polygon>
  <polygon class="fil2" points="2555.36,1831.53 2667.92,1831.53 2667.92,1939.88 2555.36,1939.88 "></polygon>
  <polygon class="fil3" points="2555.36,1991.4 2667.92,1991.4 2667.92,2099.76 2555.36,2099.76 "></polygon>
  <polygon class="fil0" points="3107.37,1675.39 3107.37,2103.97 3071.55,2103.97 2853.62,1892.86 2853.62,2100.04 2741.04,2100.04 2741.04,1671.65 2777.32,1671.65 2994.5,1882.02 2994.5,1675.39 "></polygon>
  <polygon class="fil0" points="3470.12,1781.04 3368.58,1781.04 3368.58,2099.76 3255.83,2099.76 3255.83,1781.04 3154.02,1781.04 3154.02,1675.86 3470.12,1675.86 "></polygon>
  <path class="fil0" d="M1133.03 743.15c-237.93,283.09 -475.85,566.18 -720.02,856.72l1304.1 0 0 282.71c-69.58,0 -138.13,-0.2 -206.69,0.07 -64.26,0.24 -55.73,-4.44 -55.93,56.89 -0.38,116.31 -0.12,232.6 -0.12,348.91l0 40.31 -310.86 0 0 -183.9c0,-73.89 -1.48,-147.84 0.69,-221.67 0.92,-31.44 -7.45,-41.36 -40.21,-41.19 -261.64,1.34 -523.3,0.74 -784.95,0.74l-264.62 0c0,-29.54 -0.37,-56.71 0.07,-83.88 0.99,-61.56 -12.23,-128.47 7.78,-183.16 19.59,-53.54 72.95,-94.83 111.89,-141.17 306.09,-364.4 612.51,-728.53 917.97,-1093.46 20.57,-24.56 41.67,-34.79 73.74,-34.12 94.34,1.98 188.75,0.71 285.86,0.71l0 674.88 -307.97 0 0 -275.67 -10.73 -3.72z"></path>
 </g>
</svg>
